<svg id="Android" xmlns="http://www.w3.org/2000/svg" viewBox="0 0 1450 450"><defs><style>.cls-1{fill:#110f0f;}</style></defs><path class="cls-1" d="M1150.36,191.89v41.92H1017V222.2c0-18.19,2.94-30.31,24.25-30.31ZM1033.1,166.08c-35,0-51.1,18.71-51.1,48.5v84h35V260h133.37v38.63h35.17V166.08Zm195.21,0v25.81h82.28V298.42h35V191.89H1428V166.08ZM775.4,247.49c0,18.53,3.8,25.12,24.25,25.12H945.84v25.81H791.5c-35,0-51.27-15.77-51.27-45.56v-87H946v25.81H775.57v26H939.08V243H775.57v4.5ZM534,212.15c-10.74-.86-12.64-4.67-12.64-11.08,0-6.06,3.29-9.35,11.43-9.35H694.18V166.25H528.76c-23.56,0-39.67,9-39.67,35.51s12.13,35.51,39,37.59l131,10.91c10,.87,12.82,4.33,12.82,11.44,0,6.93-3.12,11.08-12,11.08H495.67v25.81H662.83c28.75,0,41.4-11.43,41.4-38.63,0-24.77-11.44-34.64-39.5-36.89Z"/><path class="cls-1" d="M164.68,157.76c10.65-.22,23.71-.33,40-.33,57.63,0,174.77,4.28,174.77,4.28s-2.2-47.64-3.18-61.8c-1.21-17.68-1.76-21.08-6.15-24-2-1.43-5.93-3.3-16.25-4.07-99.24-6.91-178.39-7.57-256.22-3.29C64,70.27,50,72.9,37.89,83.55,29.11,91.34,24.71,104.19,24,125.38s-1.76,61.14-1.76,61.14L379.3,250h.11V198.6l-227.9-38.75C154.25,158.53,157.55,157.87,164.68,157.76Z"/><path class="cls-1" d="M22,251.4l227.9,38.86c-2.74,1.32-6,2-13.17,2.09-10.65.22-23.72.33-40,.33C139.1,292.68,22,288.4,22,288.4S24.28,336,25,350.09c1.21,17.68,1.76,21.08,6.15,24,2,1.43,5.93,3.3,16.25,4.07,99.24,6.91,178.39,7.57,256.22,3.29,33.59-1.76,47.64-4.39,59.72-15,8.78-7.79,13.17-20.64,13.94-41.83s1.76-61.14,1.76-61.14L22,200Z"/></svg>